<svg width="1440" height="890" viewBox="0 0 1440 890" fill="none" xmlns="http://www.w3.org/2000/svg">
<path d="M-49.7427 889C-60.1114 728.502 178.923 424.737 404.465 367.217C495.981 343.876 601.043 334.054 678.246 386.723C787.118 460.998 851.436 705.36 1037.72 657.853C1367.9 573.652 942.212 103.02 1325.53 5.26523C1413.31 -17.1214 1531.73 54.8977 1617.88 75.7138" stroke="black" stroke-width="1.76961" stroke-miterlimit="10"/>
<path d="M1617.14 79.9565C1532.78 59.4441 1416.81 -11.204 1330.83 10.5926C955.205 105.241 1369.08 563.708 1042.44 647.007C853.355 695.225 791.054 464.825 676.989 395.018C594.405 344.475 488.04 345.646 391.875 370.176C170.669 426.585 -58.8795 721.187 -49.0818 878.535" stroke="#000103" stroke-width="1.76961" stroke-miterlimit="10"/>
<path d="M1616.39 84.2083C1533.83 63.9996 1420.31 -5.2776 1336.12 15.929C968.188 107.471 1370.23 553.773 1047.14 636.169C855.256 685.099 794.766 468.738 675.722 403.331C587.623 354.931 480.099 347.434 379.275 373.152C162.406 428.459 -57.6571 713.889 -48.4306 868.079" stroke="#010305" stroke-width="1.76961" stroke-miterlimit="10"/>
<path d="M1615.64 88.4601C1534.87 68.5464 1423.85 0.831118 1341.41 21.2654C981.386 110.508 1371.4 543.838 1051.84 625.332C857.166 674.982 798.318 472.747 674.455 411.644C580.726 365.404 472.157 349.221 366.676 376.12C154.144 430.316 -56.443 706.583 -47.7786 857.624" stroke="#010408" stroke-width="1.76961" stroke-miterlimit="10"/>
<path d="M1614.89 92.7031C1535.92 73.0931 1427.36 6.80952 1346.71 26.5931C994.448 113.007 1372.57 533.894 1056.56 614.477C859.083 664.838 801.743 476.842 673.204 419.939C573.738 375.903 464.223 350.991 354.093 379.079C145.907 432.173 -55.2041 699.277 -47.1197 847.159" stroke="#02050B" stroke-width="1.76961" stroke-miterlimit="10"/>
<path d="M1614.15 96.9549C1536.97 77.6399 1430.87 12.7967 1352 31.9295C1007.5 115.506 1373.73 523.959 1061.27 603.64C861.003 654.712 805.037 481.051 671.948 428.251C566.654 386.472 456.292 352.779 341.504 382.055C137.654 434.039 -53.9713 691.98 -46.458 836.712" stroke="#02070E" stroke-width="1.76961" stroke-miterlimit="10"/>
<path d="M1613.4 101.206C1538.01 82.1865 1434.39 18.775 1357.29 37.2657C1020.56 118.005 1374.9 514.023 1065.99 592.802C862.913 644.586 808.232 485.372 670.69 436.564C559.498 397.101 448.359 354.566 328.914 385.031C129.4 435.913 -52.7487 684.682 -45.7975 826.256" stroke="#020810" stroke-width="1.76961" stroke-miterlimit="10"/>
<path d="M1612.66 105.45C1539.07 86.7334 1437.9 24.7536 1362.58 42.5935C1033.61 120.504 1376.06 504.08 1070.69 581.956C864.822 634.46 811.336 489.78 669.422 444.859C552.269 407.774 440.408 356.336 316.313 387.99C121.137 437.761 -51.527 677.376 -45.147 815.792" stroke="#030913" stroke-width="1.76961" stroke-miterlimit="10"/>
<path d="M1611.91 109.701C1540.11 91.2801 1441.41 30.7407 1367.88 47.9298C1046.66 123.003 1377.23 494.144 1075.4 571.118C866.731 624.334 814.388 494.301 668.155 453.172C544.988 418.533 432.467 358.124 303.714 390.958C112.874 439.627 -50.3043 670.071 -44.5043 805.336" stroke="#030A16" stroke-width="1.76961" stroke-miterlimit="10"/>
<path d="M1611.16 113.953C1541.16 95.8355 1444.92 36.7278 1373.17 53.2662C1059.7 125.502 1378.39 484.209 1080.11 560.272C868.649 614.199 817.394 498.891 666.896 461.476C537.688 429.345 424.533 359.903 291.123 393.925C104.619 441.484 -49.0825 662.765 -43.8446 794.881" stroke="#040C18" stroke-width="1.76961" stroke-miterlimit="10"/>
<path d="M1610.42 118.196C1542.22 100.374 1448.43 42.7064 1378.47 58.594C1072.76 128.001 1379.56 474.266 1084.82 549.426C870.56 604.065 820.367 503.576 665.639 469.78C530.355 440.226 416.593 361.681 278.534 396.893C96.3669 443.349 -47.8497 655.459 -43.1828 784.425" stroke="#040D1B" stroke-width="1.76961" stroke-miterlimit="10"/>
<path d="M1609.67 122.448C1543.26 104.929 1451.94 48.6935 1383.75 63.9303C1085.79 130.5 1380.72 464.33 1089.53 538.588C872.469 593.939 823.302 508.34 664.371 478.092C522.984 451.176 408.651 363.469 265.933 399.869C88.1033 445.215 -46.6279 648.17 -42.5321 773.969" stroke="#040E1E" stroke-width="1.76961" stroke-miterlimit="10"/>
<path d="M1608.92 126.7C1544.3 109.476 1455.45 54.6806 1389.04 69.258C1098.82 132.999 1381.87 454.386 1094.24 527.742C874.377 583.813 826.227 513.164 663.111 486.396C515.611 462.187 400.716 365.248 253.341 402.828C79.8476 447.072 -45.4072 640.855 -41.8825 763.504" stroke="#051021" stroke-width="1.76961" stroke-miterlimit="10"/>
<path d="M1608.18 130.951C1545.36 114.031 1458.96 60.6676 1394.34 74.5942C1111.87 135.507 1383.05 444.451 1098.96 516.904C876.305 573.686 829.155 518.067 661.863 494.7C508.242 473.241 392.784 367.026 240.76 405.795C71.6124 448.928 -44.1659 633.549 -41.2123 753.049" stroke="#051123" stroke-width="1.76961" stroke-miterlimit="10"/>
<path d="M1607.43 135.194C1546.4 118.569 1462.47 66.6375 1399.63 79.922C1124.9 138.006 1384.21 434.507 1103.66 506.049C878.205 563.543 832.064 523.004 660.587 502.995C500.844 484.357 384.834 368.797 228.152 408.754C63.3403 450.786 -42.9526 626.234 -40.5701 742.584" stroke="#051226" stroke-width="1.76961" stroke-miterlimit="10"/>
<path d="M1606.68 139.446C1547.44 123.125 1465.97 72.6247 1404.91 85.2584C1137.92 140.514 1385.36 424.572 1108.36 495.212C880.115 553.417 834.964 528.011 659.32 511.308C493.447 495.533 376.893 370.584 215.553 411.73C55.078 452.651 -41.7385 618.946 -39.9181 732.128" stroke="#061429" stroke-width="1.76961" stroke-miterlimit="10"/>
<path d="M1605.94 143.698C1548.5 127.672 1469.48 78.6118 1410.21 90.5948C1150.94 143.021 1386.54 414.637 1113.08 484.374C882.033 543.3 837.89 533.07 658.07 519.62C486.076 506.752 368.959 372.372 202.97 414.698C46.8324 454.517 -40.4988 611.64 -39.2585 721.673" stroke="#06152C" stroke-width="1.76961" stroke-miterlimit="10"/>
<path d="M1605.19 147.941C1549.54 132.218 1472.98 84.5901 1415.51 95.9223C1163.96 145.52 1387.7 404.693 1117.79 473.528C883.953 533.165 840.818 538.154 656.813 527.924C478.698 518.015 361.028 374.15 190.381 417.665C38.5793 456.382 -39.2665 604.334 -38.5973 711.217" stroke="#07162E" stroke-width="1.76961" stroke-miterlimit="10"/>
<path d="M1604.44 152.193C1550.58 136.765 1476.49 90.5772 1420.8 101.259C1176.97 148.028 1388.87 394.758 1122.49 462.69C885.852 523.039 843.744 543.291 655.545 536.236C471.317 529.33 353.085 375.938 177.78 420.641C30.3152 458.248 -38.0542 597.045 -37.9471 700.77" stroke="#071731" stroke-width="1.76961" stroke-miterlimit="10"/>
<path d="M1603.7 156.444C1551.64 141.32 1479.99 96.5643 1426.1 106.595C1189.98 150.535 1390.04 384.823 1127.22 451.844C887.78 512.904 846.689 548.445 654.296 544.532C463.965 540.662 345.152 377.708 165.199 423.6C22.0708 460.104 -36.8133 589.73 -37.2773 690.296" stroke="#071934" stroke-width="1.76961" stroke-miterlimit="10"/>
<path d="M1602.95 160.687C1552.68 145.858 1483.49 102.543 1431.38 111.923C1202.97 153.034 1391.19 374.879 1131.92 440.998C889.682 502.769 849.634 553.634 653.03 552.836C456.604 552.037 337.212 379.487 152.609 426.559C13.8178 461.953 -35.581 582.416 -36.625 679.832" stroke="#081A36" stroke-width="1.76961" stroke-miterlimit="10"/>
<path d="M1602.2 164.939C1553.73 150.405 1487 108.53 1436.67 117.259C1215.97 155.542 1392.36 364.944 1136.62 430.16C891.591 492.652 852.597 558.857 651.754 561.148C449.242 563.456 329.261 381.274 140.001 429.535C5.54609 463.827 -34.3762 575.118 -35.9824 669.385" stroke="#081B39" stroke-width="1.76961" stroke-miterlimit="10"/>
<path d="M1601.46 169.191C1554.78 154.961 1490.51 114.517 1441.97 122.596C1228.96 158.058 1393.53 355.009 1141.34 419.323C893.509 482.526 855.576 564.107 650.504 569.461C441.924 574.901 321.327 383.062 127.418 432.512C-2.69128 465.693 -33.1372 567.83 -35.3145 658.938" stroke="#091D3C" stroke-width="1.76961" stroke-miterlimit="10"/>
<path d="M1600.71 173.434C1555.82 159.499 1493.99 120.496 1447.26 127.923C1241.93 160.557 1394.7 345.065 1146.05 408.476C895.427 472.391 858.565 569.365 649.245 577.765C434.607 586.372 313.394 384.84 114.827 435.479C-10.9454 467.558 -31.906 560.523 -34.6543 648.474" stroke="#091E3F" stroke-width="1.76961" stroke-miterlimit="10"/>
<path d="M1599.96 177.686C1556.87 164.054 1497.49 126.474 1452.55 133.259C1254.89 163.074 1395.85 335.13 1150.76 397.63C897.328 462.256 861.555 574.641 647.978 586.06C427.29 597.861 305.453 386.602 102.227 438.429C-19.2082 469.398 -30.6923 553.2 -34.0117 638" stroke="#091F41" stroke-width="1.76961" stroke-miterlimit="10"/>
<path d="M1599.22 181.937C1557.92 168.601 1500.99 132.461 1457.85 138.596C1267.86 165.59 1397.02 325.195 1155.47 386.793C899.239 452.139 864.572 579.951 646.722 594.372C419.993 609.384 297.513 388.389 89.6386 441.406C-27.4603 471.272 -29.4591 545.911 -33.3496 627.553" stroke="#0A2144" stroke-width="1.76961" stroke-miterlimit="10"/>
<path d="M1598.47 186.189C1558.96 173.156 1504.48 138.448 1463.14 143.932C1280.8 168.098 1398.19 315.259 1160.18 375.955C901.156 442.013 867.595 585.27 645.462 602.685C412.7 620.933 289.578 390.177 77.0459 444.382C-35.7164 473.137 -28.2387 538.614 -32.6914 617.106" stroke="#0A2247" stroke-width="1.76961" stroke-miterlimit="10"/>
<path d="M1597.72 190.432C1560.01 177.694 1507.97 144.427 1468.43 149.251C1293.72 170.597 1399.35 305.307 1164.89 365.1C903.067 431.87 870.64 590.589 644.205 610.98C405.43 632.482 281.647 391.947 64.4571 447.341C-43.9685 474.994 -27.0055 531.299 -32.0293 606.642" stroke="#0B2349" stroke-width="1.76961" stroke-miterlimit="10"/>
<path d="M1596.98 194.684C1561.06 182.25 1511.47 150.405 1473.73 154.588C1306.64 173.104 1400.52 295.372 1169.61 354.254C904.993 421.735 873.691 595.926 642.946 619.284C398.165 644.066 273.705 393.726 51.8655 450.3C-52.2235 476.843 -25.7751 523.985 -31.3789 596.169" stroke="#0B254C" stroke-width="1.76961" stroke-miterlimit="10"/>
<path d="M1596.23 198.936C1562.11 186.797 1514.95 156.392 1479.01 159.924C1319.53 175.621 1401.68 285.437 1174.3 343.416C906.885 411.609 876.733 601.279 641.67 627.597C390.902 655.667 265.754 395.513 39.2567 453.276C-60.4956 478.717 -24.5708 516.696 -30.7368 585.722" stroke="#0B264F" stroke-width="1.76961" stroke-miterlimit="10"/>
<path d="M1595.48 203.179C1563.15 191.343 1518.43 162.362 1484.3 165.252C1332.41 178.12 1402.84 275.493 1179.02 332.57C908.804 401.483 879.813 606.642 640.412 635.892C383.657 667.268 257.822 397.283 26.667 456.235C-68.7486 480.565 -23.3385 509.381 -30.0755 575.257" stroke="#0C2752" stroke-width="1.76961" stroke-miterlimit="10"/>
<path d="M1594.74 207.43C1564.2 195.89 1521.91 168.34 1489.6 170.588C1345.25 180.627 1404.01 265.558 1183.74 321.732C910.722 391.357 882.899 612.013 639.162 644.204C376.437 678.904 249.889 399.071 14.0845 459.211C-76.9855 482.439 -22.099 502.084 -29.416 564.81" stroke="#0C2854" stroke-width="1.76961" stroke-miterlimit="10"/>
<path d="M1593.99 211.682C1565.25 200.445 1525.38 174.319 1494.9 175.924C1358.08 183.126 1405.17 255.622 1188.45 310.895C912.64 381.231 885.996 617.401 637.904 652.517C369.218 690.548 241.956 400.858 1.4939 462.178C-85.2394 484.296 -20.8765 494.787 -28.7557 554.345" stroke="#0D2A57" stroke-width="1.76961" stroke-miterlimit="10"/>
<path d="M1593.24 215.925C1566.3 204.983 1528.84 180.289 1500.18 181.252C1370.85 185.616 1406.32 245.678 1193.14 300.04C914.531 371.087 889.082 622.772 636.628 660.812C361.99 702.193 234.005 402.628 -11.1152 465.137C-93.5119 486.153 -19.6636 487.472 -28.1139 543.881" stroke="#0D2B5A" stroke-width="1.76961" stroke-miterlimit="10"/>
<path d="M1592.5 220.177C1567.35 209.539 1532.31 186.258 1505.48 186.588C1383.6 188.098 1407.5 235.743 1197.86 289.202C916.459 360.97 892.206 628.169 635.37 669.125C354.789 713.863 226.064 404.416 -23.7052 468.113C-101.765 488.018 -18.4316 480.174 -27.4529 533.434" stroke="#0D2C5C" stroke-width="1.76961" stroke-miterlimit="10"/>
<path d="M1591.75 224.429C1568.4 214.086 1535.75 192.22 1510.77 191.925C1396.3 190.571 1408.66 225.808 1202.57 278.365C918.369 350.844 895.329 633.575 634.112 677.437C347.597 725.543 218.131 406.203 -36.296 471.09C-110.019 489.893 -17.2093 472.877 -26.8017 522.987" stroke="#0E2E5F" stroke-width="1.76961" stroke-miterlimit="10"/>
<path d="M1591 228.68C1569.44 218.632 1539.2 198.172 1516.06 197.261C1408.94 193.027 1409.83 215.873 1207.27 267.527C920.278 340.718 898.443 638.981 632.845 685.741C340.405 737.23 210.189 407.982 -48.8952 474.049C-118.282 491.741 -15.9865 465.571 -26.15 512.514" stroke="#0E2F62" stroke-width="1.76961" stroke-miterlimit="10"/>
<path d="M1590.26 232.923C1570.49 223.179 1542.64 204.107 1521.36 202.589C1421.53 195.439 1411 205.929 1212 256.681C922.198 330.583 901.594 644.387 631.596 694.045C333.241 748.918 202.257 409.761 -61.4763 477.016C-126.526 493.607 -14.7456 458.265 -25.4802 502.058" stroke="#0F3065" stroke-width="1.76961" stroke-miterlimit="10"/>
<path d="M1589.51 237.175C1571.54 227.726 1546.06 210.042 1526.64 207.925C1434.03 197.816 1412.15 195.994 1216.7 245.835C924.107 320.448 904.735 649.801 630.329 702.349C326.066 760.615 194.315 411.539 -74.0762 479.984C-134.79 495.463 -13.5324 450.959 -24.8291 491.602" stroke="#0F3267" stroke-width="1.76961" stroke-miterlimit="10"/>
<path d="M1588.76 241.427C1572.58 232.281 1549.46 215.951 1531.94 213.261C1446.44 200.133 1413.32 186.059 1221.41 234.997C926.016 310.331 907.893 655.224 629.071 710.661C318.91 772.329 186.383 413.327 -86.6667 482.96C-143.043 497.337 -12.3009 443.661 -24.1777 481.155" stroke="#0F336A" stroke-width="1.76961" stroke-miterlimit="10"/>
<path d="M1588.02 245.67C1573.63 236.819 1552.87 221.826 1537.24 218.589C1458.78 202.346 1414.49 176.115 1226.12 224.151C927.935 300.196 911.052 660.639 627.812 718.965C311.762 784.043 178.441 415.106 -99.2575 485.919C-151.289 499.186 -11.0697 436.356 -23.5176 470.682" stroke="#10346D" stroke-width="1.76961" stroke-miterlimit="10"/>
<path d="M1587.27 249.922C1574.68 241.375 1556.25 227.665 1542.53 223.917C1471.01 204.411 1415.66 166.171 1230.83 213.305C929.844 290.061 914.229 666.062 626.545 727.269C304.615 795.765 170.499 416.884 -111.857 488.886C-159.551 501.051 -9.85598 429.05 -22.866 460.226" stroke="#10356F" stroke-width="1.76961" stroke-miterlimit="10"/>
<path d="M1586.52 254.173C1575.72 245.922 1559.62 233.453 1547.81 229.253C1483.16 206.285 1416.81 156.236 1235.53 202.467C931.753 279.935 917.396 671.494 625.278 735.573C297.467 807.488 162.557 418.663 -124.457 491.854C-167.815 502.908 -8.63416 421.744 -22.2152 449.77" stroke="#103772" stroke-width="1.76961" stroke-miterlimit="10"/>
<path d="M1585.78 258.416C1576.77 250.468 1563.01 239.162 1553.11 234.581C1495.31 207.83 1417.98 146.292 1240.25 191.612C933.672 269.801 920.59 676.908 624.028 743.868C290.346 819.219 154.624 420.433 -137.039 494.812C-176.06 504.765 -7.3943 414.437 -21.5554 439.306" stroke="#113875" stroke-width="1.76961" stroke-miterlimit="10"/>
<path d="M1585.03 262.668C1577.82 255.015 1566.42 244.802 1558.4 239.917C1507.58 208.958 1419.15 136.357 1244.96 180.775C935.582 259.675 923.768 682.34 622.762 752.181C283.217 830.959 146.683 422.221 -149.638 497.78C-184.322 506.622 -6.17959 407.132 -20.9028 428.841" stroke="#113978" stroke-width="1.76961" stroke-miterlimit="10"/>
<path d="M1584.28 266.92C1578.86 259.57 1569.89 250.355 1563.69 245.253C1520.28 209.513 1420.31 126.422 1249.67 169.937C937.491 249.548 926.97 687.78 621.503 760.493C276.104 842.708 138.75 424.008 -162.229 500.756C-192.577 508.496 -4.94916 399.834 -20.2435 418.394" stroke="#123B7A" stroke-width="1.76961" stroke-miterlimit="10"/>
<path d="M1583.53 271.163C1579.91 264.109 1573.47 255.848 1568.98 250.581C1533.93 209.504 1421.47 116.478 1254.37 159.091C939.401 239.414 930.166 693.212 620.237 768.797C268.985 854.457 130.809 425.787 -174.818 503.724C-200.83 510.353 -3.72538 392.528 -19.5819 407.939" stroke="#123C7D" stroke-width="1.76961" stroke-miterlimit="10"/>
<path d="M1582.79 275.415C1580.96 268.664 1577.24 261.393 1574.28 255.918C1549.1 209.339 1422.64 106.543 1259.08 148.253C941.312 229.288 933.468 699.026 618.971 777.11C261.99 866.639 122.869 427.566 -187.408 506.691C-209.083 512.219 -2.49319 385.231 -18.9297 397.483" stroke="#123D80" stroke-width="1.76961" stroke-miterlimit="10"/>
<path d="M1582.04 279.666C1582 273.211 1581.14 267.085 1579.57 261.254C1565.71 209.877 1423.8 96.6079 1263.79 137.407C943.229 219.162 936.582 704.093 617.712 785.405C254.779 877.971 114.926 429.345 -200.009 509.659C-217.347 514.076 -1.27167 377.925 -18.2793 387.027" stroke="#133F83" stroke-width="1.76961" stroke-miterlimit="10"/>
</svg>
