<svg width="24" height="22" viewBox="0 0 24 22" fill="none" xmlns="http://www.w3.org/2000/svg">
<path d="M20.6801 1.71H19.6207V0H17.8619V1.71H6.24928V0H4.49042V1.71H3.43099C1.98071 1.71 0.797852 2.86 0.797852 4.28V19.34C0.797852 20.76 1.98071 21.91 3.44128 21.91H15.959L23.3236 14.47V4.28C23.3236 2.86 22.1407 1.71 20.6801 1.71ZM16.463 18.92V15.82C16.463 15.35 16.8539 14.96 17.3476 14.96H20.3819L16.463 18.91V18.92ZM21.5647 13.26H17.3373C15.8767 13.26 14.6939 14.41 14.6939 15.83V20.19H3.44128C2.95785 20.19 2.55671 19.81 2.55671 19.33V8.04H21.5647V13.26ZM21.5647 6.33H2.55671V4.28C2.55671 3.81 2.94757 3.42 3.44128 3.42H4.50071V5.13H6.25957V3.42H17.8721V5.13H19.631V3.42H20.6904C21.1739 3.42 21.575 3.8 21.575 4.28V6.33H21.5647Z" fill="#F3F2F0"/>
</svg>
