
<svg width="24" height="28" viewBox="0 0 24 28" fill="none" xmlns="http://www.w3.org/2000/svg">
<g clip-path="url(#clip0_120_3806)">
<path d="M12.0608 5.88C9.1808 5.88 6.84595 8.16 6.84595 10.95C6.84595 13.74 9.19109 16.02 12.0608 16.02C14.9305 16.02 17.2757 13.74 17.2757 10.95C17.2757 8.16 14.9305 5.88 12.0608 5.88ZM12.0608 13.89C10.3945 13.89 9.0368 12.57 9.0368 10.95C9.0368 9.33 10.3945 8.01 12.0608 8.01C13.7271 8.01 15.0848 9.33 15.0848 10.95C15.0848 12.57 13.7271 13.89 12.0608 13.89Z" fill="white"/>
<path d="M12.0607 0C5.84814 0 0.797852 4.91 0.797852 10.95V11.25C0.797852 14.3 2.59785 17.86 6.14642 21.83C8.71785 24.7 11.2584 26.71 11.3716 26.79L12.0607 27.33L12.7499 26.79C12.8527 26.71 15.3933 24.7 17.975 21.83C21.5236 17.87 23.3236 14.31 23.3236 11.25V10.95C23.3236 4.91 18.2733 0 12.0607 0ZM21.1224 11.25C21.1224 16.41 14.2824 22.66 12.0607 24.55C9.83899 22.65 2.99899 16.41 2.99899 11.25V10.95C2.99899 6.09 7.06185 2.14 12.0607 2.14C17.0596 2.14 21.1224 6.09 21.1224 10.95V11.25Z" fill="white"/>
</g>
<defs>
<clipPath id="clip0_120_3806">
<rect width="22.5257" height="27.33" fill="white" transform="translate(0.797852)"/>
</clipPath>
</defs>
</svg>
