<svg width="123" height="123" viewBox="0 0 123 123" fill="none" xmlns="http://www.w3.org/2000/svg">
<rect width="123" height="123" rx="61.5" fill="#133F83"/>
<path fill-rule="evenodd" clip-rule="evenodd" d="M61 17C55.7306 16.9931 50.6361 18.8772 46.6553 22.3054C42.6745 25.7335 40.0754 30.4747 39.3371 35.6553C38.5988 40.8359 39.7709 46.1069 42.6375 50.4972C45.5041 54.8875 49.872 58.1012 54.9364 59.5463C47.7397 60.4141 41.5677 62.9397 36.9145 67.4942C30.9956 73.2815 28 81.9057 28 93.1572C28 93.9112 28.3016 94.6342 28.8386 95.1674C29.3755 95.7005 30.1037 96 30.863 96C31.6223 96 32.3506 95.7005 32.8875 95.1674C33.4244 94.6342 33.726 93.9112 33.726 93.1572C33.726 82.8633 36.4564 75.9208 40.9348 71.5399C45.4192 67.153 52.1216 64.8788 61 64.8788C69.8784 64.8788 76.5808 67.153 81.0712 71.5399C85.5436 75.9268 88.274 82.8633 88.274 93.1572C88.274 93.9112 88.5756 94.6342 89.1125 95.1674C89.6494 95.7005 90.3777 96 91.137 96C91.8963 96 92.6245 95.7005 93.1614 95.1674C93.6983 94.6342 94 93.9112 94 93.1572C94 81.9057 91.0044 73.2875 85.0794 67.4942C80.4383 62.9457 74.2603 60.4141 67.0636 59.5463C72.1111 58.085 76.4592 54.8663 79.3109 50.4803C82.1625 46.0942 83.3267 40.8346 82.59 35.6655C81.8533 30.4964 79.2651 25.764 75.2998 22.3359C71.3345 18.9077 66.2577 17.0133 61 17ZM44.8767 38.6951C44.8767 34.4491 46.5754 30.377 49.5991 27.3747C52.6228 24.3723 56.7238 22.6856 61 22.6856C65.2762 22.6856 69.3772 24.3723 72.4009 27.3747C75.4246 30.377 77.1233 34.4491 77.1233 38.6951C77.1233 42.9411 75.4246 47.0131 72.4009 50.0155C69.3772 53.0178 65.2762 54.7046 61 54.7046C56.7238 54.7046 52.6228 53.0178 49.5991 50.0155C46.5754 47.0131 44.8767 42.9411 44.8767 38.6951Z" fill="#F3F2F0"/>
</svg>
